<svg width="276" height="231" viewBox="0 0 276 231" fill="none" xmlns="http://www.w3.org/2000/svg">
<path d="M137.252 162.536C130.084 162.536 123.214 161.597 116.644 159.72C110.073 157.757 104.782 155.24 100.772 152.168L107.812 136.552C111.652 139.283 116.174 141.544 121.38 143.336C126.67 145.043 132.004 145.896 137.38 145.896C141.476 145.896 144.761 145.512 147.236 144.744C149.796 143.891 151.673 142.739 152.868 141.288C154.062 139.837 154.66 138.173 154.66 136.296C154.66 133.907 153.721 132.029 151.844 130.664C149.966 129.213 147.492 128.061 144.42 127.208C141.348 126.269 137.934 125.416 134.18 124.648C130.51 123.795 126.798 122.771 123.044 121.576C119.374 120.381 116.004 118.845 112.932 116.968C109.86 115.091 107.342 112.616 105.38 109.544C103.502 106.472 102.564 102.547 102.564 97.768C102.564 92.648 103.929 87.9973 106.66 83.816C109.476 79.5493 113.657 76.1787 119.204 73.704C124.836 71.144 131.876 69.864 140.324 69.864C145.956 69.864 151.502 70.5467 156.964 71.912C162.425 73.192 167.246 75.1547 171.428 77.8L165.028 93.544C160.846 91.1547 156.665 89.4053 152.484 88.296C148.302 87.1013 144.206 86.504 140.196 86.504C136.185 86.504 132.9 86.9733 130.34 87.912C127.78 88.8507 125.945 90.088 124.836 91.624C123.726 93.0747 123.172 94.7813 123.172 96.744C123.172 99.048 124.11 100.925 125.988 102.376C127.865 103.741 130.34 104.851 133.412 105.704C136.484 106.557 139.854 107.411 143.524 108.264C147.278 109.117 150.99 110.099 154.66 111.208C158.414 112.317 161.828 113.811 164.9 115.688C167.972 117.565 170.446 120.04 172.324 123.112C174.286 126.184 175.268 130.067 175.268 134.76C175.268 139.795 173.86 144.403 171.044 148.584C168.228 152.765 164.004 156.136 158.372 158.696C152.825 161.256 145.785 162.536 137.252 162.536Z" fill="#1976D2"/>
</svg>
