<svg width="772" height="800" viewBox="0 0 772 800" fill="none" xmlns="http://www.w3.org/2000/svg">
<path fill-rule="evenodd" clip-rule="evenodd" d="M556.356 512.943C461.926 607.372 308.824 607.373 214.394 512.943C119.964 418.513 119.964 265.411 214.394 170.981C308.823 76.5516 461.926 76.5507 556.356 170.981C650.786 265.411 650.785 418.513 556.356 512.943ZM478.388 437.711C427.018 489.082 343.731 489.081 292.361 437.711C240.991 386.341 240.991 303.054 292.361 251.684C343.732 200.314 427.018 200.314 478.388 251.684C529.758 303.054 529.759 386.341 478.388 437.711Z" fill="#1976D2"/>
<path d="M315.729 668.662C315.729 707.508 386.066 770.971 386.066 770.971C386.066 770.971 456.403 707.508 456.403 668.662C456.403 629.816 424.912 598.325 386.066 598.325C347.219 598.325 315.729 629.816 315.729 668.662Z" fill="#1976D2"/>
</svg>
