<svg width="859" height="452" viewBox="0 0 859 452" fill="none" xmlns="http://www.w3.org/2000/svg">
<path d="M149.689 273.536C142.521 273.536 135.652 272.597 129.081 270.72C122.51 268.757 117.22 266.24 113.209 263.168L120.249 247.552C124.089 250.283 128.612 252.544 133.817 254.336C139.108 256.043 144.441 256.896 149.817 256.896C153.913 256.896 157.198 256.512 159.673 255.744C162.233 254.891 164.11 253.739 165.305 252.288C166.5 250.837 167.097 249.173 167.097 247.296C167.097 244.907 166.158 243.029 164.281 241.664C162.404 240.213 159.929 239.061 156.857 238.208C153.785 237.269 150.372 236.416 146.617 235.648C142.948 234.795 139.236 233.771 135.481 232.576C131.812 231.381 128.441 229.845 125.369 227.968C122.297 226.091 119.78 223.616 117.817 220.544C115.94 217.472 115.001 213.547 115.001 208.768C115.001 203.648 116.366 198.997 119.097 194.816C121.913 190.549 126.094 187.179 131.641 184.704C137.273 182.144 144.313 180.864 152.761 180.864C158.393 180.864 163.94 181.547 169.401 182.912C174.862 184.192 179.684 186.155 183.865 188.8L177.465 204.544C173.284 202.155 169.102 200.405 164.921 199.296C160.74 198.101 156.644 197.504 152.633 197.504C148.622 197.504 145.337 197.973 142.777 198.912C140.217 199.851 138.382 201.088 137.273 202.624C136.164 204.075 135.609 205.781 135.609 207.744C135.609 210.048 136.548 211.925 138.425 213.376C140.302 214.741 142.777 215.851 145.849 216.704C148.921 217.557 152.292 218.411 155.961 219.264C159.716 220.117 163.428 221.099 167.097 222.208C170.852 223.317 174.265 224.811 177.337 226.688C180.409 228.565 182.884 231.04 184.761 234.112C186.724 237.184 187.705 241.067 187.705 245.76C187.705 250.795 186.297 255.403 183.481 259.584C180.665 263.765 176.441 267.136 170.809 269.696C165.262 272.256 158.222 273.536 149.689 273.536ZM207.92 297.856C204.336 297.856 200.795 297.301 197.296 296.192C193.797 295.083 190.939 293.547 188.72 291.584L196.016 277.376C197.552 278.741 199.301 279.808 201.264 280.576C203.312 281.344 205.317 281.728 207.28 281.728C210.096 281.728 212.315 281.045 213.936 279.68C215.643 278.4 217.179 276.224 218.544 273.152L222.128 264.704L223.664 262.528L248.368 203.136H267.568L236.464 276.224C234.245 281.771 231.685 286.123 228.784 289.28C225.968 292.437 222.811 294.656 219.312 295.936C215.899 297.216 212.101 297.856 207.92 297.856ZM219.696 274.688L188.976 203.136H209.584L233.392 260.736L219.696 274.688ZM363.908 202.112C369.369 202.112 374.191 203.221 378.372 205.44C382.639 207.573 385.967 210.901 388.356 215.424C390.831 219.861 392.068 225.579 392.068 232.576V272H372.1V235.648C372.1 230.101 370.948 226.005 368.644 223.36C366.34 220.715 363.097 219.392 358.916 219.392C356.015 219.392 353.412 220.075 351.108 221.44C348.804 222.72 347.012 224.683 345.732 227.328C344.452 229.973 343.812 233.344 343.812 237.44V272H323.844V235.648C323.844 230.101 322.692 226.005 320.388 223.36C318.169 220.715 314.969 219.392 310.788 219.392C307.887 219.392 305.284 220.075 302.98 221.44C300.676 222.72 298.884 224.683 297.604 227.328C296.324 229.973 295.684 233.344 295.684 237.44V272H275.716V203.136H294.788V221.952L291.204 216.448C293.593 211.755 296.964 208.213 301.316 205.824C305.753 203.349 310.788 202.112 316.42 202.112C322.735 202.112 328.239 203.733 332.932 206.976C337.711 210.133 340.868 214.997 342.404 221.568L335.364 219.648C337.668 214.272 341.337 210.005 346.372 206.848C351.492 203.691 357.337 202.112 363.908 202.112ZM450.67 273.024C444.867 273.024 439.79 271.744 435.438 269.184C431.086 266.624 427.673 262.741 425.198 257.536C422.809 252.245 421.614 245.589 421.614 237.568C421.614 229.461 422.766 222.805 425.07 217.6C427.374 212.395 430.702 208.512 435.054 205.952C439.406 203.392 444.611 202.112 450.67 202.112C457.155 202.112 462.958 203.605 468.078 206.592C473.283 209.493 477.379 213.589 480.366 218.88C483.438 224.171 484.974 230.4 484.974 237.568C484.974 244.821 483.438 251.093 480.366 256.384C477.379 261.675 473.283 265.771 468.078 268.672C462.958 271.573 457.155 273.024 450.67 273.024ZM409.966 296.832V203.136H429.038V217.216L428.654 237.696L429.934 258.048V296.832H409.966ZM447.214 256.64C450.542 256.64 453.486 255.872 456.046 254.336C458.691 252.8 460.782 250.624 462.318 247.808C463.939 244.907 464.75 241.493 464.75 237.568C464.75 233.557 463.939 230.144 462.318 227.328C460.782 224.512 458.691 222.336 456.046 220.8C453.486 219.264 450.542 218.496 447.214 218.496C443.886 218.496 440.899 219.264 438.254 220.8C435.609 222.336 433.518 224.512 431.982 227.328C430.446 230.144 429.678 233.557 429.678 237.568C429.678 241.493 430.446 244.907 431.982 247.808C433.518 250.624 435.609 252.8 438.254 254.336C440.899 255.872 443.886 256.64 447.214 256.64ZM498.341 272V177.024H518.309V272H498.341ZM536.841 272V177.024H556.809V272H536.841ZM575.341 272V203.136H595.309V272H575.341ZM585.325 193.536C581.656 193.536 578.669 192.469 576.365 190.336C574.061 188.203 572.909 185.557 572.909 182.4C572.909 179.243 574.061 176.597 576.365 174.464C578.669 172.331 581.656 171.264 585.325 171.264C588.994 171.264 591.981 172.288 594.285 174.336C596.589 176.299 597.741 178.859 597.741 182.016C597.741 185.344 596.589 188.117 594.285 190.336C592.066 192.469 589.08 193.536 585.325 193.536ZM609.105 272V259.968L649.809 211.84L653.265 218.496H610.001V203.136H669.393V215.168L628.689 263.296L625.105 256.64H670.545V272H609.105ZM690.795 297.856C687.211 297.856 683.67 297.301 680.171 296.192C676.672 295.083 673.814 293.547 671.595 291.584L678.891 277.376C680.427 278.741 682.176 279.808 684.139 280.576C686.187 281.344 688.192 281.728 690.155 281.728C692.971 281.728 695.19 281.045 696.811 279.68C698.518 278.4 700.054 276.224 701.419 273.152L705.003 264.704L706.539 262.528L731.243 203.136H750.443L719.339 276.224C717.12 281.771 714.56 286.123 711.659 289.28C708.843 292.437 705.686 294.656 702.187 295.936C698.774 297.216 694.976 297.856 690.795 297.856ZM702.571 274.688L671.851 203.136H692.459L716.267 260.736L702.571 274.688Z" fill="#1976D2"/>
</svg>
